HIERARCHY
ROOT hip
{
  OFFSET 0 0 0
  CHANNELS 6 Xposition Yposition Zposition Zrotation Yrotation Xrotation
  JOINT abdomen
  {
    OFFSET 0 20.6881 -0.73152
    CHANNELS 3 Zrotation Xrotation Yrotation
    JOINT chest
    {
      OFFSET 0 11.7043 -0.48768
      CHANNELS 3 Zrotation Xrotation Yrotation
      JOINT neck
      {
        OFFSET 0 22.1894 -2.19456
        CHANNELS 3 Zrotation Xrotation Yrotation
        JOINT head
        {
          OFFSET -0.24384 7.07133 1.2192
          CHANNELS 3 Zrotation Xrotation Yrotation
          JOINT leftEye
          {
            OFFSET 4.14528 8.04674 8.04672
            CHANNELS 3 Zrotation Xrotation Yrotation
            End Site
            {
              OFFSET 1 0 0
            }
          }
          JOINT rightEye
          {
            OFFSET -3.6576 8.04674 8.04672
            CHANNELS 3 Zrotation Xrotation Yrotation
            End Site
            {
              OFFSET 1 0 0
            }
          }
        }
      }
      JOINT rCollar
      {
        OFFSET -2.68224 19.2634 -4.8768
        CHANNELS 3 Zrotation Xrotation Yrotation
        JOINT rShldr
        {
          OFFSET -8.77824 -1.95073 1.46304
          CHANNELS 3 Zrotation Xrotation Yrotation
          JOINT rForeArm
          {
            OFFSET -28.1742 -1.7115 0.48768
            CHANNELS 3 Zrotation Xrotation Yrotation
            JOINT rHand
            {
              OFFSET -22.5879 0.773209 7.07136
              CHANNELS 3 Zrotation Xrotation Yrotation
              JOINT rThumb1
              {
                OFFSET -1.2192 -0.487915 3.41376
                CHANNELS 3 Zrotation Xrotation Yrotation
                JOINT rThumb2
                {
                  OFFSET -3.37035 -0.52449 3.41376
                  CHANNELS 3 Zrotation Xrotation Yrotation
                  End Site
                  {
                    OFFSET -1.78271 -1.18214 1.43049
                  }
                }
              }
              JOINT rIndex1
              {
                OFFSET -7.75947 0.938293 5.60832
                CHANNELS 3 Zrotation Xrotation Yrotation
                JOINT rIndex2
                {
                  OFFSET -2.54057 -0.884171 1.56538
                  CHANNELS 3 Zrotation Xrotation Yrotation
                  End Site
                  {
                    OFFSET -1.62519 -0.234802 1.16502
                  }
                }
              }
              JOINT rMid1
              {
                OFFSET -8.24714 1.18213 3.41376
                CHANNELS 3 Zrotation Xrotation Yrotation
                JOINT rMid2
                {
                  OFFSET -3.10165 -0.590103 1.0647
                  CHANNELS 3 Zrotation Xrotation Yrotation
                  End Site
                  {
                    OFFSET -2.48547 -0.328903 0.83742
                  }
                }
              }
              JOINT rRing1
              {
                OFFSET -8.82822 0.546677 1.51678
                CHANNELS 3 Zrotation Xrotation Yrotation
                JOINT rRing2
                {
                  OFFSET -2.60934 -0.819778 -0.0198488
                  CHANNELS 3 Zrotation Xrotation Yrotation
                  End Site
                  {
                    OFFSET -2.33842 -0.294052 0.168128
                  }
                }
              }
              JOINT rPinky1
              {
                OFFSET -8.27202 -0.0477905 -0.4584
                CHANNELS 3 Zrotation Xrotation Yrotation
                JOINT rPinky2
                {
                  OFFSET -1.82734 -0.647385 -0.700984
                  CHANNELS 3 Zrotation Xrotation Yrotation
                  End Site
                  {
                    OFFSET -1.69225 -0.51767 -0.607171
                  }
                }
              }
            }
          }
        }
      }
      JOINT lCollar
      {
        OFFSET 2.68224 19.2634 -4.8768
        CHANNELS 3 Zrotation Xrotation Yrotation
        JOINT lShldr
        {
          OFFSET 8.77824 -1.95073 1.46304
          CHANNELS 3 Zrotation Xrotation Yrotation
          JOINT lForeArm
          {
            OFFSET 28.1742 -1.7115 0.48768
            CHANNELS 3 Zrotation Xrotation Yrotation
            JOINT lHand
            {
              OFFSET 22.5879 0.773209 7.07136
              CHANNELS 3 Zrotation Xrotation Yrotation
              JOINT lThumb1
              {
                OFFSET 1.2192 -0.487915 3.41376
                CHANNELS 3 Zrotation Xrotation Yrotation
                JOINT lThumb2
                {
                  OFFSET 3.37035 -0.52449 3.41376
                  CHANNELS 3 Zrotation Xrotation Yrotation
                  End Site
                  {
                    OFFSET 1.78271 -1.18214 1.43049
                  }
                }
              }
              JOINT lIndex1
              {
                OFFSET 7.75947 0.938293 5.60832
                CHANNELS 3 Zrotation Xrotation Yrotation
                JOINT lIndex2
                {
                  OFFSET 2.54057 -0.884171 1.56538
                  CHANNELS 3 Zrotation Xrotation Yrotation
                  End Site
                  {
                    OFFSET 1.62519 -0.234802 1.16502
                  }
                }
              }
              JOINT lMid1
              {
                OFFSET 8.24714 1.18213 3.41376
                CHANNELS 3 Zrotation Xrotation Yrotation
                JOINT lMid2
                {
                  OFFSET 3.10165 -0.590103 1.0647
                  CHANNELS 3 Zrotation Xrotation Yrotation
                  End Site
                  {
                    OFFSET 2.48547 -0.328903 0.83742
                  }
                }
              }
              JOINT lRing1
              {
                OFFSET 8.82822 0.546677 1.51678
                CHANNELS 3 Zrotation Xrotation Yrotation
                JOINT lRing2
                {
                  OFFSET 2.60934 -0.819778 -0.0198488
                  CHANNELS 3 Zrotation Xrotation Yrotation
                  End Site
                  {
                    OFFSET 2.33842 -0.294052 0.168128
                  }
                }
              }
              JOINT lPinky1
              {
                OFFSET 8.27202 -0.0477905 -0.4584
                CHANNELS 3 Zrotation Xrotation Yrotation
                JOINT lPinky2
                {
                  OFFSET 1.82734 -0.647385 -0.700984
                  CHANNELS 3 Zrotation Xrotation Yrotation
                  End Site
                  {
                    OFFSET 1.69225 -0.51767 -0.607171
                  }
                }
              }
            }
          }
        }
      }
    }
  }
  JOINT rButtock
  {
    OFFSET -8.77824 4.35084 1.2192
    CHANNELS 3 Zrotation Xrotation Yrotation
    JOINT rThigh
    {
      OFFSET 0 -1.70687 -2.19456
      CHANNELS 3 Zrotation Xrotation Yrotation
      JOINT rShin
      {
        OFFSET 0 -36.8199 0.73152
        CHANNELS 3 Zrotation Xrotation Yrotation
        JOINT rFoot
        {
          OFFSET 0.73152 -45.1104 -5.12064
          CHANNELS 3 Zrotation Xrotation Yrotation
          End Site
          {
            OFFSET -1.1221 -3.69964 12.103
          }
        }
      }
    }
  }
  JOINT lButtock
  {
    OFFSET 8.77824 4.35084 1.2192
    CHANNELS 3 Zrotation Xrotation Yrotation
    JOINT lThigh
    {
      OFFSET 0 -1.70687 -2.19456
      CHANNELS 3 Zrotation Xrotation Yrotation
      JOINT lShin
      {
        OFFSET 0 -36.8199 0.73152
        CHANNELS 3 Zrotation Xrotation Yrotation
        JOINT lFoot
        {
          OFFSET -0.73152 -45.1104 -5.12064
          CHANNELS 3 Zrotation Xrotation Yrotation
          End Site
          {
            OFFSET 1.1221 -3.69964 12.103
          }
        }
      }
    }
  }
}
MOTION
Frames:	4
Frame Time:	0.00833333
-4.73695 84.1013 34.834 -4.4895 7.3731 1.5682 -1.00625 9.83003 7.09223 -2.22808 -6.7728 1.86814 -8.43927 9.54592 -10.1225 14.023 -25.0463 -16.2119 -0.0 0.0 0.0 -0.0 0.0 0.0 -1.34005e-13 7.03724e-14 -1.35764e-14 35.8724 -7.23175 44.3062 -26.7567 -25.5586 60.2038 -0.180528 -11.7481 -1.6773 2.13734e-11 1.49625e-10 3.076e-11 3.36771e-11 2.54987e-10 5.60958e-11 2.13767e-11 1.49621e-10 3.07448e-11 7.73091 5.47488 0.417314 2.13741e-11 1.49622e-10 3.07546e-11 2.90554 0.965183 0.102902 2.13786e-11 1.49621e-10 3.07596e-11 10.2786 0.731801 0.0259123 2.13704e-11 1.49623e-10 3.07655e-11 2.22167 -0.733487 -0.20892 -1.34217e-13 7.03654e-14 -1.38466e-14 -77.7193 46.6395 -0.944619 25.9825 -23.39 -56.6919 0.10385 -9.1549 1.2978 4.73908e-10 1.17684e-09 2.24198e-10 8.14828e-10 2.02217e-09 3.93794e-10 4.73899e-10 1.17684e-09 2.24206e-10 -7.73091 5.47488 -0.417314 4.73908e-10 1.17684e-09 2.242e-10 -2.90554 0.965183 -0.102902 4.73899e-10 1.17684e-09 2.24201e-10 -10.2786 0.731801 -0.0259123 4.73914e-10 1.17684e-09 2.24196e-10 -2.22167 -0.733487 0.20892 -2.03217e-16 0.0 -3.88251e-19 -21.5414 -3.08434 -0.0138703 0.000452478 -0.140879 0.00401269 0.565008 3.22323 -0.0276605 2.03217e-16 0.0 3.88251e-19 10.63 -14.5428 -7.80066 0.0927172 25.1554 -0.582913 2.46198 -14.9003 9.88057
-4.72396 84.1035 34.7852 -4.419 7.2899 1.5433 -0.84101 10.0557 7.23416 -2.06925 -6.76825 1.92114 -8.75593 9.50986 -10.1143 14.2622 -24.7533 -16.1259 -0.0 0.0 0.0 -0.0 0.0 0.0 -1.9362e-13 8.52805e-14 -9.48743e-14 36.0738 -4.94344 43.1649 -26.7892 -25.6586 60.345 -0.166409 -11.4446 -1.6313 9.94914e-11 3.78536e-10 1.35445e-10 1.66375e-10 6.46483e-10 2.38055e-10 9.94926e-11 3.78523e-10 1.35428e-10 7.73091 5.47488 0.417314 9.94935e-11 3.78527e-10 1.35438e-10 2.90554 0.965183 0.102902 9.9497e-11 3.78526e-10 1.35442e-10 10.2786 0.731801 0.0259123 9.94846e-11 3.78529e-10 1.35453e-10 2.22167 -0.733487 -0.20892 -1.93794e-13 8.52751e-14 -9.51084e-14 -78.0025 46.6706 -0.901072 26.0145 -23.4721 -56.8251 0.107236 -9.30043 1.3188 6.80783e-10 1.58946e-09 1.92603e-10 1.17176e-09 2.73375e-09 3.41707e-10 6.80773e-10 1.58946e-09 1.92612e-10 -7.73091 5.47488 -0.417314 6.80781e-10 1.58946e-09 1.92609e-10 -2.90554 0.965183 -0.102902 6.80775e-10 1.58945e-09 1.9261e-10 -10.2786 0.731801 -0.0259123 6.8079e-10 1.58946e-09 1.92607e-10 -2.22167 -0.733487 0.20892 -2.03217e-16 0.0 -3.88251e-19 -21.5368 -3.08912 -0.014008 0.000453946 -0.132467 0.00402241 0.563353 3.21977 -0.0274658 2.03217e-16 0.0 3.88251e-19 10.6079 -14.5545 -7.61623 0.093195 25.1919 -0.582971 2.42936 -14.8489 9.7956
-4.71313 84.1035 34.72 -4.3568 7.2354 1.5526 -0.670442 10.2593 7.36989 -1.9396 -6.74648 1.9713 -8.94343 9.46043 -10.1173 14.2655 -24.5025 -16.1219 -0.0 0.0 0.0 -0.0 0.0 0.0 -2.20194e-13 8.98522e-14 -1.36664e-13 36.2755 -2.77956 42.1028 -26.8115 -25.728 60.4464 -0.159575 -11.3125 -1.61107 1.50386e-10 4.85494e-10 1.86015e-10 2.53348e-10 8.29527e-10 3.25869e-10 1.50387e-10 4.85475e-10 1.85999e-10 7.73091 5.47488 0.417314 1.50389e-10 4.85481e-10 1.86008e-10 2.90554 0.965183 0.102902 1.50392e-10 4.8548e-10 1.86011e-10 10.2786 0.731801 0.0259123 1.50377e-10 4.85483e-10 1.86024e-10 2.22167 -0.733487 -0.20892 -2.20327e-13 8.98478e-14 -1.36863e-13 -78.1957 46.7548 -0.909816 26.0397 -23.5371 -56.9311 0.109867 -9.41076 1.33474 7.64554e-10 1.72008e-09 1.78458e-10 1.3163e-09 2.95867e-09 3.18355e-10 7.64545e-10 1.72008e-09 1.78467e-10 -7.73091 5.47488 -0.417314 7.64552e-10 1.72008e-09 1.78464e-10 -2.90554 0.965183 -0.102902 7.64547e-10 1.72008e-09 1.78466e-10 -10.2786 0.731801 -0.0259123 7.64562e-10 1.72008e-09 1.78464e-10 -2.22167 -0.733487 0.20892 -2.03217e-16 0.0 -3.88251e-19 -21.5323 -3.0926 -0.0141285 0.000463179 -0.124466 0.00410064 0.561615 3.21541 -0.0272699 2.03217e-16 0.0 3.88251e-19 10.5786 -14.5965 -7.45095 0.0936689 25.2239 -0.582782 2.39319 -14.7929 9.70116
-4.69521 84.102 34.6458 -4.2662 7.1906 1.5847 -0.501105 10.4312 7.50382 -1.84595 -6.69531 2.01956 -8.93066 9.37717 -10.1356 13.9 -24.3002 -16.2403 -0.0 0.0 0.0 -0.0 0.0 0.0 -2.0358e-13 8.21432e-14 -1.04787e-13 36.4315 -0.78717 41.0725 -26.8268 -25.7764 60.5284 -0.162542 -11.4117 -1.6256 1.16291e-10 2.93624e-11 4.6269e-11 1.96738e-10 4.89331e-11 8.32641e-11 1.16292e-10 2.93444e-11 4.6256e-11 7.73091 5.47488 0.417314 1.16294e-10 2.93488e-11 4.62644e-11 2.90554 0.965183 0.102902 1.16298e-10 2.93476e-11 4.62658e-11 10.2786 0.731801 0.0259123 1.1628e-10 2.93509e-11 4.62789e-11 2.22167 -0.733487 -0.20892 -2.03662e-13 8.21388e-14 -1.04945e-13 -78.2525 46.9191 -1.00712 26.0568 -23.5815 -57.0031 0.111403 -9.47484 1.344 6.9702e-10 1.50157e-09 1.31486e-10 1.20026e-09 2.58259e-09 2.36333e-10 6.97012e-10 1.50157e-09 1.31496e-10 -7.73091 5.47488 -0.417314 6.97018e-10 1.50157e-09 1.3149e-10 -2.90554 0.965183 -0.102902 6.97012e-10 1.50157e-09 1.31492e-10 -10.2786 0.731801 -0.0259123 6.97027e-10 1.50157e-09 1.3149e-10 -2.22167 -0.733487 0.20892 -2.03217e-16 0.0 -3.88251e-19 -21.5275 -3.09444 -0.0142356 0.00048207 -0.116627 0.0042644 0.559447 3.20954 -0.0270306 2.03217e-16 0.0 3.88251e-19 10.533 -14.683 -7.29684 0.094218 25.2495 -0.582137 2.34917 -14.7272 9.58494
